<svg width="18" height="29" viewBox="0 0 18 29" fill="none" xmlns="http://www.w3.org/2000/svg">
<path d="M9.5 21C9.5 20.7239 9.27614 20.5 9 20.5C8.72386 20.5 8.5 20.7239 8.5 21H9.5ZM8.64645 28.3536C8.84171 28.5488 9.15829 28.5488 9.35355 28.3536L12.5355 25.1716C12.7308 24.9763 12.7308 24.6597 12.5355 24.4645C12.3403 24.2692 12.0237 24.2692 11.8284 24.4645L9 27.2929L6.17157 24.4645C5.97631 24.2692 5.65973 24.2692 5.46447 24.4645C5.2692 24.6597 5.2692 24.9763 5.46447 25.1716L8.64645 28.3536ZM8.5 21V28H9.5V21H8.5Z" fill="white"/>
<path d="M6.75 12.9375L2.25 14.0625V3.9375L6.75 2.8125" stroke="white" stroke-linecap="round" stroke-linejoin="round"/>
<path d="M11.25 15.1875L6.75 12.9375V2.8125L11.25 5.0625V15.1875Z" stroke="white" stroke-linecap="round" stroke-linejoin="round"/>
<path d="M11.25 5.0625L15.75 3.9375V14.0625L11.25 15.1875" stroke="white" stroke-linecap="round" stroke-linejoin="round"/>
</svg>
