<svg width="87" height="138" viewBox="0 0 87 138" fill="none" xmlns="http://www.w3.org/2000/svg">
<path d="M51.5273 70.511V54.2383C51.5273 53.5191 51.2416 52.8292 50.733 52.3206C50.2244 51.812 49.5345 51.5263 48.8153 51.5263H37.967C37.2478 51.5263 36.5579 51.812 36.0493 52.3206C35.5407 52.8292 35.255 53.5191 35.255 54.2383V70.511C35.255 71.2302 34.9693 71.92 34.4608 72.4286C33.9522 72.9372 33.2625 73.223 32.5433 73.2231L16.2729 73.2252C15.9168 73.2252 15.5641 73.1551 15.235 73.0189C14.9059 72.8826 14.6069 72.6828 14.355 72.431C14.1031 72.1791 13.9033 71.8802 13.767 71.5511C13.6307 71.222 13.5605 70.8693 13.5605 70.5132V39.1685C13.5605 38.7906 13.6395 38.4169 13.7923 38.0714C13.9452 37.7258 14.1685 37.416 14.4481 37.1619L41.5668 12.5043C42.066 12.0504 42.7165 11.7989 43.3912 11.7988C44.0659 11.7988 44.7164 12.0503 45.2156 12.5042L72.338 37.1618C72.6176 37.416 72.841 37.7258 72.9939 38.0714C73.1468 38.417 73.2257 38.7907 73.2257 39.1686V70.5132C73.2257 70.8693 73.1556 71.222 73.0193 71.5511C72.8829 71.8802 72.6831 72.1792 72.4313 72.431C72.1794 72.6828 71.8804 72.8826 71.5513 73.0189C71.2222 73.1551 70.8695 73.2253 70.5133 73.2252L54.239 73.2231C53.5198 73.223 52.8301 72.9372 52.3215 72.4286C51.813 71.92 51.5273 71.2302 51.5273 70.511V70.511Z" stroke="white" stroke-width="4.82143" stroke-linecap="round" stroke-linejoin="round"/>
<path d="M45.8033 101.25C45.8033 99.9186 44.724 98.8393 43.3926 98.8393C42.0612 98.8393 40.9819 99.9186 40.9819 101.25H45.8033ZM41.6879 136.705C42.6294 137.646 44.1558 137.646 45.0972 136.705L60.4389 121.363C61.3803 120.422 61.3803 118.895 60.4389 117.954C59.4975 117.012 57.9711 117.012 57.0296 117.954L43.3926 131.591L29.7555 117.954C28.8141 117.012 27.2877 117.012 26.3463 117.954C25.4048 118.895 25.4048 120.422 26.3463 121.363L41.6879 136.705ZM40.9819 101.25V135H45.8033V101.25H40.9819Z" fill="white"/>
</svg>
