<svg width="18" height="17" viewBox="0 0 18 17" fill="none" xmlns="http://www.w3.org/2000/svg">
<path d="M16.3411 0.526209L1.66539 0.525879C1.13289 0.525879 1 0.659471 1 1.19173V8.11357V15.0354C1 15.5679 1.43269 16.0004 1.96495 16.0004H16.0417C16.5742 16.0004 17.0066 15.5677 17.0066 15.0354L17.0068 1.19176C16.9734 0.659488 16.8736 0.526209 16.3411 0.526209ZM16.0084 15.3017H1.96495C1.79851 15.3017 1.6655 15.1687 1.6655 15.0022V8.097V1.19176H16.3079V15.0022C16.3079 15.1687 16.1748 15.3017 16.0084 15.3017ZM8.98667 3.12185C6.09152 3.12185 3.7287 5.48472 3.7287 8.37981C3.7287 11.2749 6.09158 13.6378 8.98667 13.6378C11.8818 13.6378 14.2446 11.2749 14.2446 8.37981C14.2446 5.48472 11.8818 3.12185 8.98667 3.12185ZM8.98667 3.78735C11.4825 3.78735 13.5457 5.78417 13.5791 8.28004C11.9152 9.112 10.5507 8.61292 9.08644 8.08041C7.65559 7.5479 6.19129 6.98222 4.4276 7.74753C4.76025 5.51788 6.65725 3.78735 8.98667 3.78735ZM8.98667 13.0054C6.4908 13.0054 4.4276 11.0086 4.3942 8.51275C6.05812 7.68079 7.42259 8.17987 8.88689 8.71238C9.81868 9.07845 10.7504 9.41134 11.8154 9.41134C12.3811 9.41134 12.9468 9.31153 13.5792 9.04527C13.2131 11.2749 11.2829 13.0054 8.98667 13.0054Z" fill="black" stroke="black" stroke-width="0.2"/>
<path d="M4 2.50024C4 2.77927 3.77911 3.00024 3.5 3.00024C3.22089 3.00024 2.99992 2.7793 3 2.50024C3 2.22121 3.22089 2.00024 3.5 2.00024C3.77903 2.00024 4 2.22113 4 2.50024Z" fill="black" stroke="black" stroke-width="0.2"/>
</svg>
