<svg width="27" height="19" viewBox="0 0 27 19" fill="none" xmlns="http://www.w3.org/2000/svg">
<path d="M26.4599 0H0.539904C0.224751 0 0 0.22355 0 0.536271V14.4494C0 14.7624 0.225064 14.9856 0.539904 14.9856H10.6822V17.9275H7.82999C7.51484 17.9275 7.29009 18.151 7.29009 18.4637C7.29009 18.7768 7.51515 19 7.82999 19H19.17C19.4852 19 19.7099 18.7764 19.7099 18.4637C19.7099 18.1507 19.4848 17.9275 19.17 17.9275H16.3178V14.9856H26.4601C26.7753 14.9856 27 14.7621 27 14.4494L26.9997 0.536271C26.9997 0.22355 26.7748 0 26.4599 0ZM15.2376 17.883H11.7625V14.9412H15.2379L15.2376 17.883ZM25.9199 13.9132H1.0799V1.07289H25.9199V13.9132Z" fill="black"/>
</svg>
