<svg width="14" height="23" viewBox="0 0 14 23" fill="none" xmlns="http://www.w3.org/2000/svg">
<path d="M14 13.0538C14 9.59194 7.62005 0.84596 7.3522 0.475405L7 0L6.6478 0.475405C6.37665 0.845849 0 9.59176 0 13.0538C0.00294728 14.7126 0.684775 16.308 1.90688 17.5151C3.1288 18.7223 4.79889 19.4504 6.57731 19.5512V23H7.42242L7.42218 19.5512C9.20085 19.451 10.8714 18.7232 12.0936 17.5158C13.3158 16.3086 13.9973 14.7127 13.9995 13.0537L14 13.0538ZM7.42262 18.7646V15.6272C8.42938 15.5323 9.36264 15.0935 10.0423 14.3954C10.7219 13.6973 11.0993 12.7897 11.102 11.8476H10.2569H10.2572C10.2557 12.5791 9.96931 13.2854 9.4516 13.8359C8.93362 14.3861 8.21912 14.743 7.44035 14.8404V8.42507H6.57776V14.8404C5.79893 14.743 5.08422 14.386 4.56651 13.8359C4.04852 13.2855 3.7624 12.5791 3.76095 11.8476H2.91585C2.91806 12.7872 3.29334 13.6927 3.96926 14.3904C4.64517 15.0881 5.57402 15.5287 6.57783 15.6273V18.7647C5.02361 18.6643 3.56818 18.0192 2.50445 16.9595C1.44073 15.8999 0.848068 14.5043 0.845616 13.0538C0.845616 10.2739 5.65167 3.30468 7.00028 1.40624C8.35235 3.3076 13.155 10.2574 13.155 13.0538C13.1525 14.5043 12.5598 15.8999 11.4961 16.9595C10.4324 18.0192 8.97695 18.6643 7.42274 18.7647L7.42262 18.7646Z" fill="black"/>
</svg>
