<svg width="21" height="16" viewBox="0 0 21 16" fill="none" xmlns="http://www.w3.org/2000/svg">
<path d="M0.950002 1.22467C0.949486 1.08802 1.06255 0.96297 1.19876 0.950218L1.27733 0.942863L1.27459 0.950401H20.0757C20.2209 0.950401 20.3503 1.07974 20.3503 1.22497C20.3503 3.05816 20.3529 4.8918 20.3554 6.72581C20.3596 9.68074 20.3638 12.6366 20.3571 15.5931M0.950002 1.22467V1.22457H1L0.950002 1.22478C0.950002 1.22474 0.950002 1.2247 0.950002 1.22467ZM0.950002 1.22467V15.5718C0.950002 15.7171 1.07939 15.8462 1.2245 15.8463H1.22457H9.38358C9.52886 15.8463 9.65795 15.717 9.65814 15.5719V15.5718V5.10551M9.65814 5.10551H18.3698M9.65814 5.10551V5.05551H18.3698M9.65814 5.10551H9.60814V15.5718C9.60798 15.6894 9.50118 15.7963 9.38358 15.7963H1.22457L18.3698 5.05551M18.3698 5.10551V15.593C18.3698 15.7383 18.4991 15.8676 18.6444 15.8676H20.0826C20.2278 15.8676 20.3569 15.7382 20.3571 15.5931M18.3698 5.10551V5.05551M18.3698 5.10551H18.4198V15.593C18.4198 15.7106 18.5268 15.8176 18.6444 15.8176H20.0826C20.2002 15.8176 20.307 15.7106 20.3071 15.593M20.3571 15.5931L20.3071 15.593M20.3571 15.5931C20.3571 15.5931 20.3571 15.5931 20.3571 15.5931L20.3071 15.593M18.3698 5.05551L20.3071 15.593M9.39719 4.55085L9.38359 4.547L9.36999 4.55085C9.36433 4.55244 9.35892 4.55418 9.35365 4.55601H1.49879L1.49897 1.49896H19.8008V4.55601H9.41359C9.40818 4.55413 9.40272 4.55241 9.39719 4.55085ZM1.49897 5.10497H9.10898V8.13399H1.49897V5.10497ZM18.9186 5.10497H19.8079V15.318H18.9186V5.10497ZM1.49897 8.68296H9.10898V11.719H1.49897V8.68296ZM1.49897 12.268H9.10898V15.297H1.49897V12.268Z" fill="black" stroke="black" stroke-width="0.1"/>
<path d="M3.98679 6.42719L3.98685 6.42713C4.03902 6.37572 4.10971 6.34718 4.18315 6.34822M3.98679 6.42719L6.42698 6.39822M3.98679 6.42719C3.93459 6.47882 3.90508 6.54907 3.90508 6.62263C3.90508 6.69614 3.93455 6.7666 3.98685 6.81813L4.02195 6.78252L3.98679 6.81807C4.03906 6.86977 4.1098 6.89806 4.18308 6.89719M3.98679 6.42719L4.18277 6.84719M4.18315 6.34822C4.18328 6.34822 4.18342 6.34822 4.18356 6.34823L4.18277 6.39822V6.34822H4.18315ZM4.18315 6.34822H6.42661M6.42661 6.34822C6.42647 6.34822 6.42634 6.34822 6.4262 6.34823L6.42698 6.39822M6.42661 6.34822H6.42698V6.39822M6.42661 6.34822C6.49993 6.34718 6.57057 6.37574 6.62284 6.42706L6.62297 6.42719C6.67517 6.47882 6.70468 6.54907 6.70468 6.62263C6.70468 6.69614 6.6752 6.7666 6.6229 6.81813C6.57053 6.86974 6.49984 6.89806 6.42667 6.89719M6.42698 6.39822V6.84719M6.42667 6.89719C6.42656 6.89719 6.42644 6.89719 6.42633 6.89719L6.42698 6.84719M6.42667 6.89719H6.42698V6.84719M6.42667 6.89719H4.18308M6.42698 6.84719H4.18277M4.18308 6.89719C4.1832 6.89719 4.18331 6.89719 4.18342 6.89719L4.18277 6.84719M4.18308 6.89719H4.18277V6.84719" fill="black" stroke="black" stroke-width="0.1"/>
<path d="M3.98679 10.0058L3.98685 10.0057C4.03902 9.95433 4.10971 9.9258 4.18315 9.92683M3.98679 10.0058L6.42698 9.97683M3.98679 10.0058C3.93458 10.0574 3.90508 10.1279 3.90508 10.2012C3.90508 10.2748 3.93455 10.3452 3.98685 10.3967L4.02195 10.3611L3.98679 10.3967C4.03906 10.4484 4.10979 10.4767 4.18308 10.4758M3.98679 10.0058L4.18277 10.4258M4.18315 9.92683C4.18328 9.92684 4.18342 9.92684 4.18356 9.92684L4.18277 9.97683V9.92683H4.18315ZM4.18315 9.92683H6.42661M6.42661 9.92683C6.42647 9.92684 6.42634 9.92684 6.4262 9.92684L6.42698 9.97683M6.42661 9.92683H6.42698V9.97683M6.42661 9.92683C6.49993 9.9258 6.57057 9.95436 6.62284 10.0057L6.62297 10.0058C6.67518 10.0574 6.70468 10.1279 6.70468 10.2012C6.70468 10.2748 6.6752 10.3452 6.6229 10.3967C6.57053 10.4484 6.49984 10.4767 6.42667 10.4758M6.42698 9.97683V10.4258M6.42667 10.4758C6.42656 10.4758 6.42644 10.4758 6.42633 10.4758L6.42698 10.4258M6.42667 10.4758H6.42698V10.4258M6.42667 10.4758H4.18308M6.42698 10.4258H4.18277M4.18308 10.4758C4.1832 10.4758 4.18331 10.4758 4.18342 10.4758L4.18277 10.4258M4.18308 10.4758H4.18277V10.4258" fill="black" stroke="black" stroke-width="0.1"/>
<path d="M4.18308 13.5074C4.10972 13.5065 4.03904 13.535 3.98685 13.5865L3.98679 13.5865L6.42698 13.5574M4.18308 13.5074C4.1832 13.5074 4.18331 13.5074 4.18343 13.5074L4.18277 13.5574V13.5074H4.18308ZM4.18308 13.5074H6.42667M6.42667 13.5074C6.42656 13.5074 6.42645 13.5074 6.42633 13.5074L6.42698 13.5574M6.42667 13.5074H6.42698V13.5574M6.42667 13.5074C6.49992 13.5065 6.57055 13.5351 6.62284 13.5864L6.62297 13.5865C6.67517 13.6381 6.70468 13.7084 6.70468 13.782C6.70468 13.8555 6.6752 13.9259 6.6229 13.9775L6.62284 13.9775C6.57055 14.0289 6.49992 14.0574 6.42667 14.0565M6.42698 13.5574V14.0065M6.42667 14.0565C6.42656 14.0565 6.42644 14.0565 6.42633 14.0565L6.42698 14.0065M6.42667 14.0565H6.42698V14.0065M6.42667 14.0565H4.18308M6.42698 14.0065H4.18277M4.18308 14.0565C4.1832 14.0565 4.18331 14.0565 4.18342 14.0565L4.18277 14.0065M4.18308 14.0565H4.18277V14.0065M4.18308 14.0565C4.10972 14.0574 4.03904 14.0289 3.98685 13.9775L4.18277 14.0065" fill="black" stroke="black" stroke-width="0.1"/>
</svg>
