<svg width="24" height="19" viewBox="0 0 24 19" fill="none" xmlns="http://www.w3.org/2000/svg">
<path d="M13.4269 17.2086C13.4269 17.8368 12.9177 18.3461 12.2894 18.3461C11.6611 18.3461 11.1519 17.8368 11.1519 17.2086C11.1519 16.5803 11.6611 16.071 12.2894 16.071C12.9176 16.071 13.4269 16.5803 13.4269 17.2086Z" fill="black" stroke="black" stroke-width="0.2"/>
<path d="M12.2892 6.08329C9.29419 6.08329 6.3863 7.15133 4.10148 9.08979C3.89481 9.26514 3.86943 9.57506 4.04478 9.78191C4.22066 9.98771 4.52952 10.014 4.7369 9.83861C6.84462 8.04991 9.5265 7.06484 12.2893 7.06484C15.0522 7.06484 17.7357 8.05081 19.8458 9.84053C19.9377 9.91876 20.0502 9.95691 20.1632 9.95691C20.3022 9.95691 20.4403 9.89793 20.5376 9.78348C20.7129 9.57681 20.6875 9.26725 20.4803 9.09186C18.194 7.15147 15.2844 6.08325 12.2891 6.08325L12.2892 6.08329Z" fill="black" stroke="black" stroke-width="0.2"/>
<path d="M23.3962 4.92826C20.211 2.35821 16.3706 1 12.2893 1C8.21002 1 4.36863 2.35852 1.18243 4.92773C0.971735 5.09783 0.938658 5.40722 1.10876 5.61792C1.27834 5.82897 1.58669 5.86257 1.79895 5.69159C4.80863 3.26432 8.43656 1.9816 12.2894 1.9816C16.1434 1.9816 19.771 3.2649 22.7798 5.69231C22.8701 5.76564 22.9798 5.80116 23.0876 5.80116C23.231 5.80116 23.3734 5.73869 23.47 5.61846C23.6403 5.40741 23.6072 5.09838 23.3962 4.92827L23.3962 4.92826Z" fill="black" stroke="black" stroke-width="0.2"/>
<path d="M12.2892 11.1658C10.3196 11.1658 8.45038 11.9207 7.02699 13.2917C6.83151 13.4802 6.82574 13.7906 7.01369 13.9859C7.20269 14.1814 7.5142 14.1868 7.70791 13.9994C8.94798 12.8052 10.575 12.1477 12.2896 12.1477C14.0157 12.1477 15.6505 12.8127 16.8938 14.0216C16.9891 14.1143 17.1129 14.1606 17.2359 14.1606C17.3638 14.1606 17.4912 14.1108 17.5876 14.0118C17.7763 13.8174 17.7721 13.5066 17.5778 13.3176C16.151 11.9297 14.2728 11.1658 12.2896 11.1658L12.2892 11.1658Z" fill="black" stroke="black" stroke-width="0.2"/>
</svg>
